<svg width="90" height="29" viewBox="0 0 90 29" fill="none" xmlns="http://www.w3.org/2000/svg">
<path d="M45.2 6.87691L49.8353 0L49.6082 8.3327L57.3353 5.53847L52.3329 12.1444L60.2 14.5L52.3329 16.8556L57.3353 23.4615L49.6082 20.6673L49.8353 29L45.2 22.1231L40.5647 29L40.7915 20.6673L33.0647 23.4615L38.0671 16.8556L30.2 14.5L38.0671 12.1444L33.0647 5.53847L40.7915 8.3327L40.5647 0L45.2 6.87691Z" fill="#FA8700"/>
<path d="M14.86 1.16C14.86 1.12 14.86 0.999999 14.86 0.999999H13L7.9 9.86L2.16 0.999999H0.36L1.26 2.24V12.6C1.26 13.46 0.66 14.52 0 14.86C0 14.9 0 15 0 15H2.68C2.68 15 2.68 14.9 2.68 14.86C2.02 14.52 1.42 13.46 1.42 12.6V2.44L7.14 11.16H7.32L12.84 1.6V13.68C12.84 14.38 12.68 14.68 12.38 14.86C12.38 14.9 12.38 15 12.38 15H14.86C14.86 15 14.86 14.9 14.86 14.86C14.54 14.68 14.4 14.38 14.4 13.68V2.34C14.4 1.62 14.54 1.34 14.86 1.16Z" fill="black"/>
<path d="M18.4848 13.68V5.38H18.3448L16.4648 5.82C16.4648 5.82 16.4648 5.92 16.4648 5.96C16.8448 6.02 16.9048 6.22 16.9048 6.92V13.68C16.9048 14.38 16.7648 14.68 16.4648 14.86C16.4648 14.9 16.4648 15 16.4648 15H18.9448C18.9448 15 18.9448 14.9 18.9448 14.86C18.6248 14.68 18.4848 14.38 18.4848 13.68ZM17.6448 3.76C18.1648 3.76 18.5848 3.34 18.5848 2.82C18.5848 2.3 18.1648 1.88 17.6448 1.88C17.1248 1.88 16.7048 2.3 16.7048 2.82C16.7048 3.34 17.1248 3.76 17.6448 3.76Z" fill="black"/>
<path d="M29.6716 13.68C29.5916 12.94 29.3916 10.84 29.1916 8.9C28.9516 6.5 27.5516 5.38 25.9116 5.38C23.3116 5.38 22.6316 8.1 22.3716 10.34V5.38H22.2316L20.3516 5.82C20.3516 5.82 20.3516 5.92 20.3516 5.96C20.7316 6.02 20.7916 6.22 20.7916 6.92V13.68C20.7916 14.38 20.6516 14.68 20.3516 14.86C20.3516 14.9 20.3516 15 20.3516 15H22.8316C22.8316 15 22.8316 14.9 22.8316 14.86C22.5116 14.68 22.3716 14.38 22.3716 13.68V12.04C22.3716 10.36 22.7916 6.18 25.0316 5.74C26.7516 5.4 27.4916 7.1 27.6316 8.6C27.7316 9.64 28.0316 13.02 28.0916 13.68C28.1516 14.34 28.0716 14.68 27.7516 14.86C27.7516 14.9 27.7516 15 27.7516 15H30.2316C30.2316 15 30.2316 14.9 30.2316 14.86C29.9316 14.68 29.7516 14.4 29.6716 13.68Z" fill="black"/>
<path d="M64.06 12.38C61.88 12.38 61.16 13.56 61 14.86C60.52 18.78 67.5 17.62 67.12 20.24C67 21.1 65.92 21.84 64.48 21.84C62.7 21.84 61.2 20.18 60.52 18.78H60.42L60 20.78C61.08 21.58 62.28 22.12 63.9 22.12C66.14 22.12 67.62 20.94 67.74 19.36C67.96 16.1 61.22 16.82 61.5 14.14C61.6 13.32 62.36 12.56 63.72 12.56C64.86 12.56 66.14 13.8 66.76 15.5H66.86L67.26 13.66C66.46 13.04 65.1 12.38 64.06 12.38Z" fill="black"/>
<path d="M78.4802 21.86C78.1602 21.68 78.0202 21.38 78.0202 20.68V12.38H77.8802L76.0002 12.82C76.0002 12.82 76.0002 12.92 76.0002 12.96C76.3802 13.02 76.4402 13.22 76.4402 13.92V15.46C76.4402 17.14 76.0402 21.32 73.8002 21.76C72.0802 22.08 71.1802 20.64 71.1802 18.9V12.38H71.0402L69.1602 12.82C69.1602 12.82 69.1602 12.92 69.1602 12.96C69.5402 13.02 69.6002 13.22 69.6002 13.92V18.6C69.6002 20.96 71.0602 22.12 72.9002 22.12C75.5002 22.12 76.1802 19.4 76.4402 17.14V22H78.4802C78.4802 22 78.4802 21.9 78.4802 21.86Z" fill="black"/>
<path d="M89.2028 20.68C89.1228 19.94 88.9228 17.84 88.7228 15.9C88.4828 13.5 87.0828 12.38 85.4428 12.38C82.8428 12.38 82.1628 15.1 81.9028 17.34V12.38H81.7628L79.8828 12.82C79.8828 12.82 79.8828 12.92 79.8828 12.96C80.2628 13.02 80.3228 13.22 80.3228 13.92V20.68C80.3228 21.38 80.1828 21.68 79.8828 21.86C79.8828 21.9 79.8828 22 79.8828 22H82.3628C82.3628 22 82.3628 21.9 82.3628 21.86C82.0428 21.68 81.9028 21.38 81.9028 20.68V19.04C81.9028 17.36 82.3228 13.18 84.5628 12.74C86.2828 12.4 87.0228 14.1 87.1628 15.6C87.2628 16.64 87.5628 20.02 87.6228 20.68C87.6828 21.34 87.6028 21.68 87.2828 21.86C87.2828 21.9 87.2828 22 87.2828 22H89.7628C89.7628 22 89.7628 21.9 89.7628 21.86C89.4628 21.68 89.2828 21.4 89.2028 20.68Z" fill="black"/>
</svg>
