<svg width="90" height="29" viewBox="0 0 90 29" fill="none" xmlns="http://www.w3.org/2000/svg">
<path d="M45.3194 6.87691L49.967 0L49.7393 8.3327L57.4868 5.53847L52.4712 12.1444L60.3591 14.5L52.4712 16.8556L57.4868 23.4615L49.7393 20.6673L49.967 29L45.3194 22.1231L40.6719 29L40.8993 20.6673L33.1521 23.4615L38.1677 16.8556L30.2798 14.5L38.1677 12.1444L33.1521 5.53847L40.8993 8.3327L40.6719 0L45.3194 6.87691Z" fill="#FA8700"/>
<path d="M14.8993 1.16C14.8993 1.12 14.8993 0.999999 14.8993 0.999999H13.0344L7.92088 9.86L2.16571 0.999999H0.360951L1.26333 2.24V12.6C1.26333 13.46 0.661744 14.52 0 14.86C0 14.9 0 15 0 15H2.68708C2.68708 15 2.68708 14.9 2.68708 14.86C2.02534 14.52 1.42375 13.46 1.42375 12.6V2.44L7.15887 11.16H7.33934L12.8739 1.6V13.68C12.8739 14.38 12.7135 14.68 12.4127 14.86C12.4127 14.9 12.4127 15 12.4127 15H14.8993C14.8993 15 14.8993 14.9 14.8993 14.86C14.5784 14.68 14.4381 14.38 14.4381 13.68V2.34C14.4381 1.62 14.5784 1.34 14.8993 1.16Z" fill="white"/>
<path d="M18.5337 13.68V5.38H18.3933L16.5084 5.82C16.5084 5.82 16.5084 5.92 16.5084 5.96C16.8894 6.02 16.9495 6.22 16.9495 6.92V13.68C16.9495 14.38 16.8091 14.68 16.5084 14.86C16.5084 14.9 16.5084 15 16.5084 15H18.9949C18.9949 15 18.9949 14.9 18.9949 14.86C18.6741 14.68 18.5337 14.38 18.5337 13.68ZM17.6915 3.76C18.2128 3.76 18.634 3.34 18.634 2.82C18.634 2.3 18.2128 1.88 17.6915 1.88C17.1701 1.88 16.749 2.3 16.749 2.82C16.749 3.34 17.1701 3.76 17.6915 3.76Z" fill="white"/>
<path d="M29.75 13.68C29.6698 12.94 29.4692 10.84 29.2687 8.9C29.0281 6.5 27.6244 5.38 25.98 5.38C23.3732 5.38 22.6914 8.1 22.4307 10.34V5.38H22.2903L20.4053 5.82C20.4053 5.82 20.4053 5.92 20.4053 5.96C20.7863 6.02 20.8465 6.22 20.8465 6.92V13.68C20.8465 14.38 20.7061 14.68 20.4053 14.86C20.4053 14.9 20.4053 15 20.4053 15H22.8919C22.8919 15 22.8919 14.9 22.8919 14.86C22.571 14.68 22.4307 14.38 22.4307 13.68V12.04C22.4307 10.36 22.8518 6.18 25.0977 5.74C26.8223 5.4 27.5642 7.1 27.7046 8.6C27.8048 9.64 28.1056 13.02 28.1658 13.68C28.2259 14.34 28.1457 14.68 27.8249 14.86C27.8249 14.9 27.8249 15 27.8249 15H30.3114C30.3114 15 30.3114 14.9 30.3114 14.86C30.0107 14.68 29.8302 14.4 29.75 13.68Z" fill="white"/>
<path d="M64.2293 12.38C62.0435 12.38 61.3216 13.56 61.1612 14.86C60.6799 18.78 67.6784 17.62 67.2974 20.24C67.177 21.1 66.0942 21.84 64.6504 21.84C62.8657 21.84 61.3617 20.18 60.6799 18.78H60.5797L60.1585 20.78C61.2414 21.58 62.4446 22.12 64.0688 22.12C66.3148 22.12 67.7987 20.94 67.919 19.36C68.1396 16.1 61.3818 16.82 61.6625 14.14C61.7628 13.32 62.5248 12.56 63.8884 12.56C65.0314 12.56 66.3148 13.8 66.9364 15.5H67.0367L67.4377 13.66C66.6356 13.04 65.272 12.38 64.2293 12.38Z" fill="white"/>
<path d="M78.6875 21.86C78.3667 21.68 78.2263 21.38 78.2263 20.68V12.38H78.0859L76.201 12.82C76.201 12.82 76.201 12.92 76.201 12.96C76.582 13.02 76.6421 13.22 76.6421 13.92V15.46C76.6421 17.14 76.2411 21.32 73.9952 21.76C72.2706 22.08 71.3682 20.64 71.3682 18.9V12.38H71.2279L69.3429 12.82C69.3429 12.82 69.3429 12.92 69.3429 12.96C69.7239 13.02 69.7841 13.22 69.7841 13.92V18.6C69.7841 20.96 71.2479 22.12 73.0928 22.12C75.6997 22.12 76.3815 19.4 76.6421 17.14V22H78.6875C78.6875 22 78.6875 21.9 78.6875 21.86Z" fill="white"/>
<path d="M89.4385 20.68C89.3583 19.94 89.1578 17.84 88.9573 15.9C88.7166 13.5 87.3129 12.38 85.6686 12.38C83.0617 12.38 82.3799 15.1 82.1192 17.34V12.38H81.9789L80.0939 12.82C80.0939 12.82 80.0939 12.92 80.0939 12.96C80.4749 13.02 80.5351 13.22 80.5351 13.92V20.68C80.5351 21.38 80.3947 21.68 80.0939 21.86C80.0939 21.9 80.0939 22 80.0939 22H82.5804C82.5804 22 82.5804 21.9 82.5804 21.86C82.2596 21.68 82.1192 21.38 82.1192 20.68V19.04C82.1192 17.36 82.5403 13.18 84.7863 12.74C86.5108 12.4 87.2528 14.1 87.3931 15.6C87.4934 16.64 87.7942 20.02 87.8543 20.68C87.9145 21.34 87.8343 21.68 87.5134 21.86C87.5134 21.9 87.5134 22 87.5134 22H90C90 22 90 21.9 90 21.86C89.6992 21.68 89.5187 21.4 89.4385 20.68Z" fill="white"/>
</svg>
